<?xml version="1.0" standalone="no"?>
<!DOCTYPE svg PUBLIC "-//W3C//DTD SVG 20010904//EN"
 "http://www.w3.org/TR/2001/REC-SVG-20010904/DTD/svg10.dtd">
<svg version="1.0" xmlns="http://www.w3.org/2000/svg"
 width="144.000000pt" height="144.000000pt" viewBox="0 0 144.000000 144.000000"
 preserveAspectRatio="xMidYMid meet">

<g transform="translate(0.000000,144.000000) scale(0.100000,-0.100000)"
fill="#000000" stroke="none">
<path d="M695 1370 c-9 -17 -41 -58 -70 -90 -48 -53 -75 -105 -75 -149 0 -19
95 83 125 134 22 37 48 125 40 133 -2 2 -11 -10 -20 -28z"/>
<path d="M740 1369 c0 -25 21 -81 44 -115 25 -38 106 -127 111 -122 2 2 -5 27
-15 57 -12 35 -34 70 -68 104 -27 29 -54 61 -60 72 -9 15 -11 16 -12 4z"/>
<path d="M288 1316 c-24 -18 -39 -63 -32 -92 3 -13 18 -33 31 -44 81 -64 183
51 112 126 -25 27 -82 32 -111 10z m86 -48 c24 -39 -42 -79 -69 -42 -11 15
-10 22 3 42 17 26 49 26 66 0z"/>
<path d="M1090 1323 c0 -5 12 -9 26 -9 35 -3 64 -32 64 -66 0 -37 -42 -82 -69
-73 -11 3 -22 2 -24 -3 -3 -4 6 -7 21 -6 40 2 39 2 62 26 23 25 26 74 6 100
-19 25 -86 49 -86 31z"/>
<path d="M1065 1310 c-3 -5 -1 -10 4 -10 6 0 11 5 11 10 0 6 -2 10 -4 10 -3 0
-8 -4 -11 -10z"/>
<path d="M1036 1285 c-3 -9 -6 -22 -5 -28 0 -7 5 -1 10 12 5 13 8 26 5 28 -2
2 -6 -3 -10 -12z"/>
<path d="M1031 1228 c-1 -19 25 -48 42 -48 7 0 4 5 -6 11 -10 6 -22 20 -27 32
-6 16 -9 18 -9 5z"/>
<path d="M776 1031 c-18 -7 -18 -8 -1 -25 21 -21 39 -16 43 12 4 23 -8 26 -42
13z"/>
<path d="M686 1015 c4 -8 10 -12 15 -9 11 6 2 24 -11 24 -5 0 -7 -7 -4 -15z"/>
<path d="M222 1009 c-47 -14 -110 -106 -137 -199 -6 -20 -1 -16 22 15 46 62
129 134 179 157 25 11 44 21 42 23 -11 9 -78 12 -106 4z"/>
<path d="M1152 1002 c-8 -6 -3 -13 20 -24 43 -21 123 -92 161 -143 23 -31 28
-34 22 -15 -13 46 -71 143 -96 162 -28 21 -88 33 -107 20z"/>
<path d="M766 954 c-8 -20 -7 -21 24 -26 20 -2 26 2 28 20 3 18 -1 22 -21 22
-14 0 -28 -7 -31 -16z"/>
<path d="M586 842 c6 -27 4 -31 -10 -26 -9 3 -16 11 -17 18 0 6 -4 2 -9 -9 -8
-18 -9 -18 -9 -2 -1 10 -5 16 -10 12 -6 -3 -14 2 -19 11 -8 15 -10 15 -15 0
-4 -10 -3 -15 3 -11 6 3 9 -2 8 -12 -2 -32 2 -54 10 -50 4 3 8 -7 8 -21 1 -15
5 -65 9 -112 6 -71 4 -95 -14 -150 -11 -35 -19 -66 -16 -68 10 -10 86 106 100
150 19 65 19 167 1 237 -16 59 -30 82 -20 33z"/>
<path d="M841 582 c-1 -20 38 -92 50 -92 6 0 8 -4 5 -8 -3 -5 8 -22 25 -38
l31 -29 -19 40 c-10 22 -21 41 -24 43 -3 1 -4 17 -2 35 3 29 -1 26 -13 -13 -5
-13 -6 -13 -14 0 -13 21 -12 38 1 20 9 -13 10 -13 6 0 -2 8 -10 15 -17 15 -7
0 -16 9 -21 20 -4 11 -8 14 -8 7z"/>
<path d="M477 349 c4 -13 8 -18 11 -10 2 7 -1 18 -6 23 -8 8 -9 4 -5 -13z"/>
<path d="M585 359 c-4 -6 -5 -12 -2 -15 2 -3 7 2 10 11 7 17 1 20 -8 4z"/>
<path d="M674 350 c0 -13 4 -16 10 -10 7 7 7 13 0 20 -6 6 -10 3 -10 -10z"/>
<path d="M1298 333 c7 -3 16 -2 19 1 4 3 -2 6 -13 5 -11 0 -14 -3 -6 -6z"/>
<path d="M153 295 c0 -22 2 -30 4 -17 2 12 2 30 0 40 -3 9 -5 -1 -4 -23z"/>
<path d="M241 314 c-1 -12 6 -28 16 -35 15 -13 15 -12 6 6 -6 11 -13 27 -16
35 -4 10 -6 8 -6 -6z"/>
<path d="M381 295 c1 -40 1 -40 10 -10 5 18 5 33 -1 39 -7 7 -10 -4 -9 -29z"/>
<path d="M775 320 c-3 -5 -1 -10 4 -10 6 0 11 5 11 10 0 6 -2 10 -4 10 -3 0
-8 -4 -11 -10z"/>
<path d="M821 291 c1 -28 3 -30 6 -11 3 14 9 30 14 36 5 7 3 11 -6 11 -11 0
-15 -11 -14 -36z"/>
<path d="M1221 314 c0 -11 3 -14 6 -6 3 7 2 16 -1 19 -3 4 -6 -2 -5 -13z"/>
<path d="M706 303 c-4 -10 0 -23 11 -32 16 -15 16 -15 3 2 -11 15 -11 20 -1
27 8 4 9 10 3 14 -5 3 -13 -2 -16 -11z"/>
<path d="M930 311 c0 -10 19 -25 25 -20 1 2 -3 10 -11 17 -8 7 -14 8 -14 3z"/>
<path d="M1313 290 c-11 -16 -10 -18 2 -14 8 4 15 12 15 20 0 19 -3 18 -17 -6z"/>
<path d="M990 289 c0 -5 5 -7 10 -4 6 3 10 8 10 11 0 2 -4 4 -10 4 -5 0 -10
-5 -10 -11z"/>
<path d="M288 263 c6 -2 18 -2 25 0 6 3 1 5 -13 5 -14 0 -19 -2 -12 -5z"/>
</g>
</svg>
